<?xml version="1.0" standalone="no"?>
<!DOCTYPE svg PUBLIC "-//W3C//DTD SVG 20010904//EN"
 "http://www.w3.org/TR/2001/REC-SVG-20010904/DTD/svg10.dtd">
<svg version="1.0" xmlns="http://www.w3.org/2000/svg"
 width="260.000000pt" height="260.000000pt" viewBox="0 0 260.000000 260.000000"
 preserveAspectRatio="xMidYMid meet">
<metadata>
Created by potrace 1.14, written by Peter Selinger 2001-2017
</metadata>
<g transform="translate(0.000000,260.000000) scale(0.100000,-0.100000)"
fill="#000000" stroke="none">
<path d="M1160 2135 l0 -65 -220 0 -220 0 0 -775 0 -775 580 0 580 0 0 775 0
775 -220 0 -220 0 0 65 0 65 -140 0 -140 0 0 -65z m160 -5 c0 -11 -4 -20 -10
-20 -5 0 -10 9 -10 20 0 11 5 20 10 20 6 0 10 -9 10 -20z m450 -820 l0 -640
-470 0 -470 0 0 640 0 640 470 0 470 0 0 -640z"/>
<path d="M900 1805 l0 -105 110 0 110 0 0 105 0 105 -110 0 -110 0 0 -105z"/>
<path d="M1190 1810 l0 -40 145 0 145 0 0 40 0 40 -145 0 -145 0 0 -40z"/>
<path d="M1540 1810 l0 -40 90 0 90 0 0 40 0 40 -90 0 -90 0 0 -40z"/>
<path d="M900 1405 l0 -105 110 0 110 0 0 105 0 105 -110 0 -110 0 0 -105z"/>
<path d="M1230 1410 l0 -40 95 0 95 0 0 40 0 40 -95 0 -95 0 0 -40z"/>
<path d="M1480 1410 l0 -40 110 0 110 0 0 40 0 40 -110 0 -110 0 0 -40z"/>
<path d="M900 1005 l0 -105 110 0 110 0 0 105 0 105 -110 0 -110 0 0 -105z"/>
<path d="M1180 1010 l0 -40 270 0 270 0 0 40 0 40 -270 0 -270 0 0 -40z"/>
</g>
</svg>
